<svg width="3600" height="4280" viewBox="0 0 3600 4280" fill="none" xmlns="http://www.w3.org/2000/svg">
<path d="M492.523 837.509L1775.01 1860.25L3057.49 837.509V3142.73C3057.49 3501.36 2766.76 3792.09 2408.13 3792.09H1141.88C783.251 3792.09 492.523 3501.36 492.523 3142.73V837.509Z" fill="black"/>
<path d="M3057.49 1174.61C3057.49 1038.6 2900.27 962.889 2793.93 1047.69L1876.22 1779.53C1817.01 1826.75 1733.01 1826.75 1673.79 1779.53L756.081 1047.69C649.747 962.889 492.524 1038.6 492.524 1174.61V3142.73C492.524 3495.75 774.231 3782.97 1125.11 3791.87L1141.88 3792.09H2408.13C2766.76 3792.09 3057.49 3501.36 3057.49 3142.73V1174.61ZM3544.51 3142.73C3544.51 3770.33 3035.73 4279.11 2408.13 4279.11H1141.88C514.279 4279.11 5.50586 3770.33 5.50586 3142.73V163.312C5.50586 27.3066 162.726 -48.408 269.06 36.3881L1673.79 1156.59C1733.01 1203.81 1817.01 1203.81 1876.22 1156.59L3280.95 36.3881C3387.29 -48.408 3544.51 27.3067 3544.51 163.312V3142.73Z" fill="black"/>
<path d="M492.523 1174.6C492.523 1038.6 649.745 962.884 756.079 1047.68L1673.79 1779.53C1733 1826.75 1817.01 1826.75 1876.22 1779.53L2793.93 1047.68C2900.26 962.885 3057.49 1038.6 3057.49 1174.6V3142.73C3057.49 3501.36 2766.76 3792.08 2408.13 3792.08H1141.88C783.251 3792.08 492.523 3501.36 492.523 3142.73V1174.6Z" fill="#99FF99"/>
<path d="M27.2279 3364.76L3544.53 1334.04L3544.53 1461.06L54.9983 3475.74C54.9983 3475.74 44.8987 3442.55 39.498 3421C34.0329 3399.19 27.2279 3364.76 27.2279 3364.76Z" fill="#99FF99"/>
<path d="M2182.17 2310.02C2220.97 2299.18 2255.17 2310.65 2277.84 2323.29L2277.87 2323.26L2693.97 2555.17L2694.39 2555.4L2694.83 2555.64C2736.51 2579.46 2765.25 2621.28 2765.26 2674.64C2765.26 2697.18 2760.59 2721.93 2747.34 2745.39C2734.13 2768.78 2715.16 2785.86 2694.24 2797.46L2694.27 2797.52L2278.17 3031.55L2278.14 3031.49C2255.6 3044.34 2221.31 3056.25 2182.17 3045.32C2143.7 3034.57 2120.67 3007.34 2107.89 2985.45L2107.83 2985.48C2107.64 2985.17 2107.51 2984.83 2107.33 2984.51C2107.21 2984.3 2107.04 2984.1 2106.92 2983.89L2106.98 2983.86C2093.77 2961.03 2082.06 2926.86 2092.94 2887.9C2103.8 2849.04 2131.49 2825.82 2153.05 2813.09L2153.81 2812.61L2154.64 2812.17L2395.11 2676.55L2155.25 2543.9L2153.75 2543.05L2152.25 2542.14C2130.32 2528.87 2103.71 2505.42 2093.21 2467.29C2082.6 2428.75 2093.77 2394.66 2106.59 2371.68L2106.98 2371.01L2107.36 2370.3C2120.24 2348.14 2143.55 2320.81 2182.17 2310.02Z" fill="black"/>
<path d="M1955.93 2038.94C1986.45 2040.18 2025.8 2051.04 2053.01 2087.27L2053.07 2087.22C2053.91 2088.3 2054.63 2089.45 2055.43 2090.54C2055.7 2090.93 2056.04 2091.29 2056.31 2091.69L2056.28 2091.72C2082 2127.99 2081.42 2168.49 2074.87 2197.48L2074.22 2200.13L1781.89 3334.64L1781.83 3334.61C1776.03 3358.24 1763.26 3384.61 1737.85 3404.54C1711.72 3425.03 1682.23 3430.93 1658.09 3430.93C1622.79 3430.93 1580.11 3418.26 1552.04 3378.15L1551.74 3377.77L1551.48 3377.36C1526.85 3341.37 1526.61 3301.74 1535.03 3270.39H1534.97L1826.63 2135.87C1832.18 2113 1844.28 2086.81 1868.94 2066.59C1894.96 2045.26 1924.83 2038.82 1949.72 2038.82L1955.93 2038.94Z" fill="black"/>
<path d="M1304.59 2329.1C1327.56 2316.29 1361.63 2305.17 1400.14 2315.77C1433.5 2324.96 1455.64 2346.47 1469.54 2366.4L1475.01 2374.81L1475.81 2376.14L1476.57 2377.52C1489.56 2400.79 1500.73 2435.37 1489.46 2474.28C1478.4 2512.41 1451.29 2535.52 1429.41 2548.45L1428.35 2549.09L1427.24 2549.71L1187.88 2682.3L1428.53 2818.01L1429.74 2818.69L1430.91 2819.39C1452.46 2832.42 1479.23 2855.65 1489.87 2893.74C1500.73 2932.62 1489.26 2966.96 1476.13 2989.94L1475.48 2991.05C1462.51 3013.01 1439.04 3040.53 1400.14 3051.25C1361.27 3061.95 1327.13 3050.35 1304.29 3037.33V3037.39L888.162 2803.36L888.191 2803.3C867.277 2791.7 848.293 2774.62 835.09 2751.23C821.846 2727.77 817.203 2703.01 817.203 2680.48C817.206 2627.12 845.951 2585.3 887.632 2561.48L888.044 2561.24L888.485 2561.01L1304.59 2329.1Z" fill="black"/>
<circle cx="2690.51" cy="3431" r="75" fill="black"/>
</svg>
