<svg width="750" height="795" viewBox="0 0 750 795" fill="none" xmlns="http://www.w3.org/2000/svg">
<path d="M701.719 22.5145C714.961 16.4906 730 26.1713 730 40.7196V475C730 640.685 595.685 775 430 775H320C154.315 775 20.0001 640.685 20 475V40.7196C20 26.1713 35.0387 16.4906 48.2812 22.5145L366.719 167.372C371.98 169.765 378.02 169.765 383.281 167.372L701.719 22.5145ZM630 196.07C630 181.522 614.961 171.841 601.719 177.865L383.281 277.232C378.02 279.626 371.98 279.626 366.719 277.232L148.281 177.865C135.039 171.841 120 181.522 120 196.07V475C120 585.457 209.543 675 320 675H430C540.457 675 630 585.457 630 475V196.07Z" fill="black"/>
<path d="M730 40.7194C730 26.1711 714.961 16.4904 701.719 22.5143L383.281 167.372C378.02 169.765 371.98 169.765 366.719 167.372L48.2812 22.5143C35.0387 16.4904 20 26.1711 20 40.7194V475C20.0001 640.685 154.315 775 320 775H430C595.685 775 730 640.685 730 475V40.7194ZM430 655V675H320V655H430ZM610 475V196.07L391.562 295.437C381.04 300.224 368.96 300.224 358.438 295.437L140 196.07V475C140 574.411 220.589 655 320 655V675C209.543 675 120 585.457 120 475V196.07C120 181.522 135.039 171.841 148.281 177.865L366.719 277.232C371.98 279.626 378.02 279.626 383.281 277.232L601.719 177.865C614.961 171.841 630 181.522 630 196.07V475C630 585.457 540.457 675 430 675V655C528.635 655 608.74 575.665 609.985 477.326L610 475ZM750 475C750 651.731 606.731 795 430 795H320C143.959 795 1.12008 652.848 0.00683594 477.069L0 475V40.7194C0 11.6232 30.0773 -7.73864 56.5625 4.30925L375 149.167L693.438 4.30925C719.923 -7.73867 750 11.6232 750 40.7194V475Z" fill="#99FF99"/>
<path d="M120 475C120 585.457 209.543 675 320 675H430C540.457 675 630 585.457 630 475V196.07C630 181.522 614.961 171.841 601.719 177.865L383.281 277.233C378.02 279.626 371.98 279.626 366.719 277.233L148.281 177.865C135.039 171.841 120 181.522 120 196.07V475Z" fill="#99FF99"/>
<path d="M138.907 559.729C142.029 566.395 145.51 572.86 149.321 579.101L62.6855 629.119C58.8937 622.799 55.3284 616.327 52 609.716L138.907 559.729ZM730.124 243.774L630.124 301.51V277.189L730.124 219.673V243.774Z" fill="#99FF99"/>
<path d="M453.731 383.218C461.512 381.045 468.37 383.344 472.916 385.879L472.922 385.873L556.366 432.379L556.448 432.426L556.537 432.474C564.895 437.25 570.66 445.637 570.66 456.337C570.66 460.857 569.724 465.82 567.067 470.526C564.419 475.217 560.614 478.641 556.419 480.968L556.425 480.98L472.981 527.911L472.975 527.899C468.455 530.475 461.581 532.864 453.731 530.672C446.016 528.516 441.397 523.055 438.835 518.666L438.823 518.672C438.786 518.61 438.759 518.541 438.722 518.477C438.698 518.435 438.664 518.396 438.64 518.353L438.652 518.348C436.003 513.77 433.654 506.916 435.838 499.103C438.015 491.312 443.567 486.655 447.89 484.101L448.044 484.006L448.209 483.918L496.432 456.721L448.333 430.12L448.032 429.949L447.731 429.766C443.332 427.106 437.996 422.402 435.891 414.757C433.762 407.028 436.003 400.191 438.575 395.584L438.652 395.448L438.728 395.306C441.311 390.864 445.986 385.382 453.731 383.218Z" fill="black"/>
<path d="M408.355 328.857C414.476 329.106 422.366 331.283 427.824 338.55L427.836 338.538C428.004 338.754 428.149 338.986 428.308 339.204C428.363 339.283 428.43 339.355 428.485 339.435L428.479 339.44C433.638 346.715 433.52 354.836 432.207 360.649L432.078 361.18L373.454 588.691L373.442 588.685C372.28 593.423 369.717 598.712 364.622 602.708C359.382 606.818 353.47 608 348.628 608C341.549 608 332.991 605.46 327.36 597.416L327.301 597.34L327.248 597.257C322.311 590.039 322.262 582.094 323.95 575.806H323.939L382.427 348.296C383.538 343.708 385.966 338.456 390.91 334.402C396.128 330.124 402.119 328.833 407.111 328.833L408.355 328.857Z" fill="black"/>
<path d="M277.738 387.044C282.345 384.475 289.176 382.245 296.9 384.371C303.59 386.213 308.029 390.527 310.817 394.524L311.914 396.212L312.073 396.477L312.227 396.754C314.831 401.42 317.072 408.355 314.811 416.158C312.594 423.805 307.156 428.439 302.77 431.031L302.557 431.161L302.333 431.285L254.334 457.874L302.593 485.089L302.835 485.224L303.071 485.366C307.392 487.979 312.759 492.637 314.893 500.274C317.072 508.072 314.771 514.958 312.138 519.566L312.009 519.79C309.407 524.192 304.701 529.712 296.9 531.86C289.105 534.006 282.258 531.681 277.679 529.07V529.082L194.23 482.151L194.236 482.139C190.042 479.812 186.235 476.387 183.587 471.697C180.931 466.991 180 462.027 180 457.508C180.001 446.808 185.765 438.421 194.124 433.644L194.206 433.597L194.295 433.55L277.738 387.044Z" fill="black"/>
<path d="M535 592C535 600.837 527.837 608 519 608C510.163 608 503 600.837 503 592C503 583.163 510.163 576 519 576C527.837 576 535 583.163 535 592Z" fill="black"/>
</svg>
