<svg width="3539" height="4280" viewBox="0 0 3539 4280" fill="none" xmlns="http://www.w3.org/2000/svg">
<path d="M487.019 837.509L1769.5 1860.25L3051.98 837.509V3142.73C3051.98 3501.36 2761.25 3792.09 2402.62 3792.09H1136.38C777.746 3792.09 487.019 3501.36 487.019 3142.73V837.509Z" fill="black"/>
<path d="M3051.98 1174.61C3051.98 1038.6 2894.76 962.889 2788.43 1047.69L1870.72 1779.53C1811.5 1826.75 1727.5 1826.75 1668.28 1779.53L750.575 1047.69C644.241 962.889 487.018 1038.6 487.018 1174.61V3142.73C487.018 3495.75 768.725 3782.97 1119.6 3791.86L1136.38 3792.09H2402.62C2761.25 3792.09 3051.98 3501.36 3051.98 3142.73V1174.61ZM3539 3142.73C3539 3770.33 3030.23 4279.11 2402.62 4279.11H1136.38C508.773 4279.11 0 3770.33 0 3142.73V163.312C0 27.3066 157.22 -48.408 263.555 36.3881L1668.29 1156.59C1727.5 1203.81 1811.5 1203.81 1870.72 1156.59L3275.45 36.3881C3381.78 -48.408 3539 27.3067 3539 163.312V3142.73Z" fill="black"/>
<path d="M487.019 1174.6C487.019 1038.6 644.241 962.884 750.575 1047.68L1668.28 1779.53C1727.5 1826.75 1811.5 1826.75 1870.72 1779.53L2788.43 1047.68C2894.76 962.885 3051.98 1038.6 3051.98 1174.6V3142.73C3051.98 3501.36 2761.25 3792.08 2402.62 3792.08H1136.38C777.746 3792.08 487.019 3501.36 487.019 3142.73V1174.6Z" fill="#99FF99"/>
<rect y="2623.24" width="487.018" height="97.4037" fill="#99FF99"/>
<circle cx="243.509" cy="2671.95" r="146.105" fill="#99FF99"/>
<rect x="3051.98" y="1681.67" width="487.018" height="97.4037" fill="#99FF99"/>
<circle cx="3295.49" cy="1730.38" r="146.105" fill="#99FF99"/>
<path d="M2176.67 2310.02C2215.46 2299.18 2249.67 2310.65 2272.34 2323.29L2272.37 2323.26L2688.47 2555.17L2688.88 2555.4L2689.32 2555.64C2731 2579.46 2759.75 2621.28 2759.75 2674.64C2759.75 2697.18 2755.08 2721.93 2741.83 2745.39C2728.63 2768.78 2709.65 2785.86 2688.73 2797.46L2688.76 2797.52L2272.66 3031.55L2272.63 3031.49C2250.09 3044.34 2215.81 3056.25 2176.67 3045.32C2138.2 3034.57 2115.16 3007.34 2102.38 2985.45L2102.32 2985.48C2102.14 2985.17 2102.01 2984.83 2101.82 2984.51C2101.7 2984.3 2101.53 2984.1 2101.41 2983.89L2101.47 2983.86C2088.26 2961.03 2076.55 2926.86 2087.44 2887.9C2098.3 2849.04 2125.98 2825.82 2147.54 2813.09L2148.31 2812.61L2149.13 2812.17L2389.6 2676.55L2149.75 2543.9L2148.25 2543.05L2146.75 2542.14C2124.81 2528.87 2098.2 2505.42 2087.7 2467.29C2077.09 2428.75 2088.27 2394.66 2101.09 2371.68L2101.47 2371.01L2101.85 2370.3C2114.73 2348.14 2138.05 2320.81 2176.67 2310.02Z" fill="black"/>
<path d="M1950.42 2038.94C1980.94 2040.18 2020.29 2051.04 2047.51 2087.27L2047.56 2087.22C2048.4 2088.3 2049.13 2089.45 2049.92 2090.54C2050.19 2090.93 2050.53 2091.29 2050.8 2091.69L2050.77 2091.72C2076.5 2127.99 2075.91 2168.49 2069.36 2197.48L2068.72 2200.13L1776.38 3334.64L1776.32 3334.61C1770.53 3358.24 1757.75 3384.61 1732.34 3404.54C1706.21 3425.03 1676.73 3430.93 1652.58 3430.93C1617.28 3430.93 1574.61 3418.26 1546.53 3378.15L1546.24 3377.77L1545.97 3377.36C1521.35 3341.37 1521.11 3301.74 1529.53 3270.39H1529.47L1821.13 2135.87C1826.67 2113 1838.78 2086.81 1863.43 2066.59C1889.45 2045.26 1919.32 2038.82 1944.22 2038.82L1950.42 2038.94Z" fill="black"/>
<path d="M1299.08 2329.1C1322.06 2316.29 1356.12 2305.17 1394.64 2315.77C1427.99 2324.96 1450.13 2346.47 1464.03 2366.4L1469.51 2374.81L1470.3 2376.14L1471.07 2377.52C1484.05 2400.79 1495.23 2435.37 1483.95 2474.28C1472.9 2512.41 1445.78 2535.52 1423.91 2548.45L1422.85 2549.09L1421.73 2549.71L1182.38 2682.3L1423.02 2818.01L1424.23 2818.69L1425.41 2819.39C1446.96 2832.42 1473.72 2855.65 1484.36 2893.74C1495.23 2932.62 1483.75 2966.96 1470.62 2989.94L1469.98 2991.05C1457.01 3013.01 1433.54 3040.53 1394.64 3051.25C1355.77 3061.95 1321.62 3050.35 1298.79 3037.33V3037.39L882.656 2803.36L882.685 2803.3C861.772 2791.7 842.787 2774.62 829.584 2751.23C816.34 2727.77 811.697 2703.01 811.697 2680.48C811.7 2627.12 840.445 2585.3 882.126 2561.48L882.538 2561.24L882.98 2561.01L1299.08 2329.1Z" fill="black"/>
<circle cx="243.51" cy="2671.95" r="81.1697" fill="black"/>
<circle cx="3295.49" cy="1730.38" r="81.1697" fill="black"/>
</svg>
