<svg width="3645" height="4380" viewBox="0 0 3645 4380" fill="none" xmlns="http://www.w3.org/2000/svg">
<path d="M537.523 887.509L1820.01 1910.25L3102.49 887.509V3192.73C3102.49 3551.36 2811.76 3842.09 2453.13 3842.09H1186.88C828.251 3842.09 537.523 3551.36 537.523 3192.73V887.509Z" fill="black"/>
<path d="M3310.37 66.8418C3433.08 -31.0127 3614.51 56.3621 3614.51 213.312V3192.73C3614.51 3834.14 3094.54 4354.11 2453.13 4354.11H1186.88C545.474 4354.11 25.5079 3834.14 25.5078 3192.73V213.312C25.5079 56.362 206.94 -31.0127 329.649 66.8418L1734.38 1187.04C1784.48 1226.99 1855.54 1226.99 1905.64 1187.04L3310.37 66.8418ZM3077.49 1224.61C3077.49 1109.55 2944.48 1045.49 2854.52 1117.23L1936.81 1849.08C1868.48 1903.57 1771.54 1903.57 1703.2 1849.08L785.495 1117.23C695.536 1045.49 562.526 1109.55 562.526 1224.61V3192.73C562.526 3532.12 833.322 3808.25 1170.62 3816.87L1187.07 3817.09H2453.13C2797.96 3817.09 3077.49 3537.55 3077.49 3192.73V1224.61Z" fill="black" stroke="#99FF99" stroke-width="50"/>
<path d="M537.523 1224.6C537.523 1088.6 694.745 1012.88 801.079 1097.68L1718.79 1829.53C1778 1876.75 1862.01 1876.75 1921.22 1829.53L2838.93 1097.68C2945.26 1012.88 3102.49 1088.6 3102.49 1224.6V3192.73C3102.49 3551.36 2811.76 3842.08 2453.13 3842.08H1186.88C828.251 3842.08 537.523 3551.36 537.523 3192.73V1224.6Z" fill="#99FF99"/>
<path d="M72.2279 3414.76L3589.53 1384.04L3589.53 1511.06L99.9983 3525.74C99.9983 3525.74 89.8987 3492.55 84.498 3471C79.0329 3449.19 72.2279 3414.76 72.2279 3414.76Z" fill="#99FF99"/>
<path d="M2227.17 2360.02C2265.97 2349.18 2300.17 2360.65 2322.84 2373.29L2322.87 2373.26L2738.97 2605.17L2739.38 2605.4L2739.83 2605.64C2781.51 2629.46 2810.25 2671.28 2810.26 2724.64C2810.26 2747.18 2805.58 2771.93 2792.34 2795.39C2779.13 2818.78 2760.16 2835.86 2739.24 2847.46L2739.27 2847.52L2323.16 3081.55L2323.13 3081.49C2300.59 3094.34 2266.31 3106.25 2227.17 3095.32C2188.7 3084.57 2165.66 3057.34 2152.89 3035.45L2152.83 3035.48C2152.64 3035.17 2152.51 3034.83 2152.33 3034.51C2152.21 3034.3 2152.04 3034.1 2151.92 3033.89L2151.97 3033.86C2138.77 3011.03 2127.06 2976.86 2137.94 2937.9C2148.8 2899.04 2176.49 2875.82 2198.04 2863.09L2198.81 2862.61L2199.63 2862.17L2440.1 2726.55L2200.25 2593.9L2198.75 2593.05L2197.25 2592.14C2175.31 2578.87 2148.71 2555.42 2138.21 2517.29C2127.59 2478.75 2138.77 2444.66 2151.59 2421.68L2151.97 2421.01L2152.36 2420.3C2165.24 2398.14 2188.55 2370.81 2227.17 2360.02Z" fill="black"/>
<path d="M2000.93 2088.94C2031.45 2090.18 2070.8 2101.04 2098.01 2137.27L2098.07 2137.22C2098.91 2138.3 2099.63 2139.45 2100.43 2140.54C2100.7 2140.93 2101.04 2141.29 2101.31 2141.69L2101.28 2141.72C2127 2177.99 2126.42 2218.49 2119.87 2247.48L2119.22 2250.13L1826.89 3384.64L1826.83 3384.61C1821.03 3408.24 1808.26 3434.61 1782.85 3454.54C1756.72 3475.03 1727.23 3480.93 1703.09 3480.93C1667.79 3480.93 1625.11 3468.26 1597.04 3428.15L1596.74 3427.77L1596.48 3427.36C1571.85 3391.37 1571.61 3351.74 1580.03 3320.39H1579.97L1871.63 2185.87C1877.18 2163 1889.28 2136.81 1913.94 2116.59C1939.96 2095.26 1969.83 2088.82 1994.72 2088.82L2000.93 2088.94Z" fill="black"/>
<path d="M1349.59 2379.1C1372.56 2366.29 1406.63 2355.17 1445.14 2365.77C1478.5 2374.96 1500.64 2396.47 1514.54 2416.4L1520.01 2424.81L1520.81 2426.14L1521.57 2427.52C1534.56 2450.79 1545.73 2485.37 1534.46 2524.28C1523.4 2562.41 1496.29 2585.52 1474.41 2598.45L1473.35 2599.09L1472.24 2599.71L1232.88 2732.3L1473.53 2868.01L1474.74 2868.69L1475.91 2869.39C1497.46 2882.42 1524.23 2905.65 1534.87 2943.74C1545.73 2982.62 1534.26 3016.96 1521.13 3039.94L1520.48 3041.05C1507.51 3063.01 1484.04 3090.53 1445.14 3101.25C1406.27 3111.95 1372.13 3100.35 1349.29 3087.33V3087.39L933.162 2853.36L933.191 2853.3C912.277 2841.7 893.293 2824.62 880.09 2801.23C866.846 2777.77 862.203 2753.01 862.203 2730.48C862.206 2677.12 890.951 2635.3 932.632 2611.48L933.044 2611.24L933.485 2611.01L1349.59 2379.1Z" fill="black"/>
<circle cx="2735.51" cy="3481" r="75" fill="black"/>
</svg>
