<svg width="750" height="795" viewBox="0 0 750 795" fill="none" xmlns="http://www.w3.org/2000/svg">
<path d="M701.719 21.8414C714.961 15.8175 730 25.4982 730 40.0465V474.327C730 640.012 595.685 774.327 430 774.327H320C154.315 774.327 20.0001 640.012 20 474.327V40.0465C20 25.4982 35.0387 15.8175 48.2812 21.8414L366.719 166.699C371.98 169.092 378.02 169.092 383.281 166.699L701.719 21.8414ZM630 195.397C630 180.849 614.961 171.168 601.719 177.192L383.281 276.559C378.02 278.953 371.98 278.953 366.719 276.559L148.281 177.192C135.039 171.168 120 180.849 120 195.397V474.327C120 584.784 209.543 674.327 320 674.327H430C540.457 674.327 630 584.784 630 474.327V195.397Z" fill="black"/>
<path d="M730 40.0468C730 25.4985 714.961 15.8178 701.719 21.8417L383.281 166.699C378.02 169.093 371.98 169.093 366.719 166.699L48.2812 21.8417C35.0387 15.8178 20 25.4985 20 40.0468V474.327C20.0001 640.012 154.315 774.327 320 774.327H430C595.685 774.327 730 640.012 730 474.327V40.0468ZM430 654.327V674.327H320V654.327H430ZM610 474.327V195.397L391.562 294.765C381.04 299.551 368.96 299.551 358.438 294.765L140 195.397V474.327C140 573.738 220.589 654.327 320 654.327V674.327C209.543 674.327 120 584.784 120 474.327V195.397C120 180.849 135.039 171.168 148.281 177.192L366.719 276.56C371.98 278.953 378.02 278.953 383.281 276.56L601.719 177.192C614.961 171.168 630 180.849 630 195.397V474.327C630 584.784 540.457 674.327 430 674.327V654.327C528.635 654.327 608.74 574.992 609.985 476.653L610 474.327ZM750 474.327C750 651.058 606.731 794.327 430 794.327H320C143.959 794.327 1.12008 652.175 0.00683594 476.396L0 474.327V40.0468C0 10.9506 30.0773 -8.41124 56.5625 3.63665L375 148.494L693.438 3.63665C719.923 -8.41128 750 10.9506 750 40.0468V474.327Z" fill="#99FF99"/>
<path d="M120 474.327C120 584.784 209.543 674.327 320 674.327H430C540.457 674.327 630 584.784 630 474.327V195.397C630 180.849 614.961 171.168 601.719 177.192L383.281 276.56C378.02 278.953 371.98 278.953 366.719 276.56L148.281 177.192C135.039 171.168 120 180.849 120 195.397V474.327Z" fill="#99FF99"/>
<path d="M138.907 559.056C142.029 565.722 145.51 572.187 149.321 578.428L62.6855 628.446C58.8937 622.126 55.3284 615.654 52 609.043L138.907 559.056ZM730.124 243.102L630.124 300.837V276.517L730.124 219V243.102Z" fill="#99FF99"/>
<path d="M453.731 393.867C461.512 391.693 468.37 393.993 472.916 396.527L472.922 396.521L556.366 443.028L556.448 443.075L556.537 443.122C564.895 447.899 570.66 456.286 570.66 466.986C570.66 471.505 569.724 476.469 567.067 481.174C564.419 485.865 560.614 489.29 556.419 491.616L556.425 491.628L472.981 538.559L472.975 538.547C468.455 541.124 461.581 543.513 453.731 541.32C446.016 539.165 441.397 533.703 438.835 529.315L438.823 529.32C438.786 529.258 438.759 529.189 438.722 529.126C438.698 529.083 438.664 529.044 438.64 529.002L438.652 528.996C436.003 524.418 433.654 517.565 435.838 509.752C438.015 501.96 443.567 497.304 447.89 494.749L448.044 494.655L448.209 494.566L496.432 467.369L448.333 440.768L448.032 440.597L447.731 440.414C443.332 437.754 437.996 433.05 435.891 425.406C433.762 417.676 436.003 410.839 438.575 406.232L438.652 406.096L438.728 405.955C441.311 401.512 445.986 396.031 453.731 393.867Z" fill="black"/>
<path d="M408.355 328.024C414.476 328.273 422.366 330.45 427.824 337.717L427.836 337.705C428.004 337.921 428.149 338.153 428.308 338.371C428.363 338.45 428.43 338.522 428.485 338.602L428.479 338.607C433.638 345.882 433.52 354.003 432.207 359.816L432.078 360.347L373.454 587.858L373.442 587.852C372.28 592.59 369.717 597.879 364.622 601.875C359.382 605.985 353.47 607.167 348.628 607.167C341.549 607.167 332.991 604.627 327.36 596.583L327.301 596.507L327.248 596.424C322.311 589.206 322.262 581.261 323.95 574.973H323.939L382.427 347.463C383.538 342.875 385.966 337.623 390.91 333.569C396.128 329.291 402.119 328 407.111 328L408.355 328.024Z" fill="black"/>
<path d="M277.738 396.522C282.345 393.953 289.176 391.723 296.9 393.85C303.59 395.692 308.029 400.006 310.817 404.003L311.914 405.69L312.073 405.956L312.227 406.233C314.831 410.899 317.072 417.834 314.811 425.637C312.594 433.284 307.156 437.917 302.77 440.509L302.557 440.639L302.333 440.763L254.334 467.352L302.593 494.567L302.835 494.703L303.071 494.844C307.392 497.457 312.759 502.116 314.893 509.753C317.072 517.551 314.771 524.437 312.138 529.044L312.009 529.268C309.407 533.67 304.701 539.191 296.9 541.339C289.105 543.485 282.258 541.159 277.679 538.548V538.56L194.23 491.629L194.236 491.617C190.042 489.29 186.235 485.865 183.587 481.175C180.931 476.47 180 471.506 180 466.987C180.001 456.286 185.765 447.9 194.124 443.123L194.206 443.076L194.295 443.029L277.738 396.522Z" fill="black"/>
<path d="M535 591.327C535 600.164 527.837 607.327 519 607.327C510.163 607.327 503 600.164 503 591.327C503 582.491 510.163 575.327 519 575.327C527.837 575.327 535 582.491 535 591.327Z" fill="black"/>
</svg>
